<svg xmlns="http://www.w3.org/2000/svg" viewBox="0 0 1024 1024" width="1024" height="1024"><defs>
<linearGradient id="bg" x1="0" y1="0" x2="1" y2="1"><stop offset="0" stop-color="#312E81"/><stop offset="1" stop-color="#5B21B6"/></linearGradient>
<radialGradient id="shine" cx="0.2" cy="0.1" r="0.8"><stop offset="0" stop-color="#ffffff" stop-opacity="0.22"/><stop offset="1" stop-color="#ffffff" stop-opacity="0"/></radialGradient>
<linearGradient id="coral" x1="0" y1="0" x2="1" y2="1"><stop offset="0" stop-color="#FB7185"/><stop offset="1" stop-color="#F43F5E"/></linearGradient>
<filter id="shadow" x="-20%" y="-20%" width="140%" height="140%"><feDropShadow dx="0" dy="18" stdDeviation="22" flood-color="#1E1B4B" flood-opacity="0.35"/></filter>
</defs><rect width="1024" height="1024" rx="0" fill="url(#bg)"/><rect width="1024" height="1024" rx="0" fill="url(#shine)"/><g transform="translate(512 512) scale(1.0) translate(-512 -512)"><g transform="rotate(-6 512 512)" filter="url(#shadow)"><rect x="262" y="200" width="500" height="620" rx="56" fill="#E8E6F8"/></g><g transform="rotate(-6 512 512)"><path d="M312 330h400" stroke="#C7D2FE" stroke-width="6" stroke-linecap="round"/><path d="M312 410h400" stroke="#C7D2FE" stroke-width="6" stroke-linecap="round"/><path d="M312 490h400" stroke="#C7D2FE" stroke-width="6" stroke-linecap="round"/><path d="M312 570h400" stroke="#C7D2FE" stroke-width="6" stroke-linecap="round"/><path d="M312 650h400" stroke="#C7D2FE" stroke-width="6" stroke-linecap="round"/><path d="M312 730h400" stroke="#C7D2FE" stroke-width="6" stroke-linecap="round"/><path d="M330 470c40-60 70-60 90 0s50 60 90 0 70-60 90 0 40 40 70 10" fill="none" stroke="#1E1B4B" stroke-width="26" stroke-linecap="round" stroke-linejoin="round"/><path d="M330 570c60-14 140-14 210 0" fill="none" stroke="#1E1B4B" stroke-width="26" stroke-linecap="round"/></g><circle cx="748" cy="748" r="132" fill="#ffffff" fill-opacity="0.95"/><circle cx="748" cy="748" r="112" fill="url(#coral)"/><path d="M748 692v112M692 748h112" stroke="#ffffff" stroke-width="32" stroke-linecap="round"/></g></svg>
